<?xml version="1.0" encoding="UTF-8" standalone="no"?>
<!-- Created with Inkscape (http://www.inkscape.org/) -->

<svg
   version="1.1"
   id="svg1"
   width="160.2886"
   height="354.46091"
   viewBox="0 0 160.28861 354.46089"
   xml:space="preserve"
   xmlns="http://www.w3.org/2000/svg"
   xmlns:svg="http://www.w3.org/2000/svg"><defs
     id="defs1" /><g
     id="g33"
     style="display:inline"
     transform="rotate(180,80.159143,177.24535)"><rect
       style="fill:#ffffff;fill-rule:evenodd;stroke:#ffffff;stroke-width:1.50546"
       id="rect26"
       width="45.608387"
       height="261.98306"
       x="45.254833"
       y="89.272232" /><rect
       style="fill:#ffffff;fill-rule:evenodd;stroke:#ffffff"
       id="rect27"
       width="15.202795"
       height="33.410793"
       x="83.615372"
       y="89.449005" /><rect
       style="fill:#ffffff;fill-rule:evenodd;stroke:#ffffff"
       id="rect33"
       width="10.783379"
       height="28.284271"
       x="86.620575"
       y="267.28635" /><g
       id="g46-5-3"
       style="display:inline"
       transform="rotate(-90,448.2151,1252.9311)"><path
         id="path43-39-2"
         d="m 1698.6043,963.95999 c 0.3773,0.01 0.7427,-0.1352 1.0156,-0.4029 0.2729,-0.2678 0.4307,-0.6363 0.4388,-1.0242"
         style="display:inline;fill:#000000;fill-opacity:1;stroke:#ff2000;stroke-width:0.96;stroke-linecap:round;stroke-linejoin:round;stroke-miterlimit:10;stroke-dasharray:none;stroke-opacity:1" /><path
         id="path44-246-4"
         d="m 1700.6363,807.05419 c 0.01,-0.8054 -0.6237,-1.464 -1.407,-1.472"
         style="display:inline;fill:none;stroke:#ff2400;stroke-width:0.96;stroke-linecap:round;stroke-linejoin:round;stroke-miterlimit:10;stroke-dasharray:none;stroke-opacity:1" /><path
         id="path45-1-6"
         d="m 1347.3855,805.22569 1.7204,0.016"
         style="display:inline;fill:none;stroke:#ff2f00;stroke-width:0.96;stroke-linecap:round;stroke-linejoin:round;stroke-miterlimit:10;stroke-dasharray:none;stroke-opacity:1" /><path
         id="path46-82-6"
         d="m 1347.1355,963.13809 c 0.011,0.3878 0.1729,0.7551 0.4483,1.0206 0.2753,0.2656 0.6421,0.4077 1.0192,0.3948"
         style="display:inline;fill:none;stroke:#ff3300;stroke-width:0.96;stroke-linecap:round;stroke-linejoin:round;stroke-miterlimit:10;stroke-dasharray:none;stroke-opacity:1" /></g></g></svg>
